<svg width="158" height="38" viewBox="0 0 158 38" fill="none" xmlns="http://www.w3.org/2000/svg">
<path d="M22.92 2.92C24.8133 2.92 25.68 4.02666 25.52 6.24C25.3333 8.50667 24.84 12.64 24.04 18.64C22.9467 26.9333 22.3467 32.2267 22.24 34.52C22.1867 35.4267 21.92 36.1067 21.44 36.56C20.96 36.9867 20.2 37.2 19.16 37.2C17.56 37.2 16.76 36.4267 16.76 34.88C16.76 33.8933 16.8533 32.7867 17.04 31.56C17.2267 30.3067 17.52 28.6267 17.92 26.52C18.4 23.9333 18.7067 22.0133 18.84 20.76C17.72 23.08 16.3467 24.8133 14.72 25.96C13.0933 27.08 11.16 27.64 8.92 27.64C6.2 27.64 4.10667 26.9733 2.64 25.64C1.2 24.3067 0.48 22.4133 0.48 19.96C0.48 19.1867 0.533333 18.4267 0.64 17.68C0.773334 16.9067 0.973334 15.8667 1.24 14.56C1.58667 12.88 1.84 11.3467 2 9.96C2.18667 8.57333 2.26667 7.08 2.24 5.48C2.21333 4.68 2.46667 4.05333 3 3.6C3.53333 3.14666 4.29333 2.92 5.28 2.92C6.90667 2.92 7.8 3.77333 7.96 5.48C8.01333 6.22666 8.04 6.78666 8.04 7.16C8.04 8.49333 7.93333 9.77333 7.72 11C7.53333 12.2 7.26667 13.5733 6.92 15.12C6.73333 15.8933 6.57333 16.6533 6.44 17.4C6.30667 18.12 6.24 18.7333 6.24 19.24C6.24 20.3067 6.56 21.1333 7.2 21.72C7.84 22.28 8.76 22.56 9.96 22.56C11.7733 22.56 13.4 21.9067 14.84 20.6C16.3067 19.2667 17.48 17.3733 18.36 14.92C19.2667 12.4667 19.8267 9.6 20.04 6.32C20.2 4.05333 21.16 2.92 22.92 2.92ZM33.7775 37.2C32.1242 37.2 30.8042 36.6 29.8175 35.4C28.8308 34.2 28.3375 32.6267 28.3375 30.68C28.3375 28.5467 28.8308 26.5333 29.8175 24.64C30.8042 22.72 32.1108 21.1867 33.7375 20.04C35.3908 18.8667 37.1375 18.28 38.9775 18.28C39.5642 18.28 39.9508 18.4 40.1375 18.64C40.3508 18.8533 40.5242 19.2533 40.6575 19.84C41.2175 19.7333 41.8042 19.68 42.4175 19.68C43.7242 19.68 44.3775 20.1467 44.3775 21.08C44.3775 21.64 44.1775 22.9733 43.7775 25.08C43.1642 28.1467 42.8575 30.28 42.8575 31.48C42.8575 31.88 42.9508 32.2 43.1375 32.44C43.3508 32.68 43.6175 32.8 43.9375 32.8C44.4442 32.8 45.0575 32.48 45.7775 31.84C46.4975 31.1733 47.4708 30.1067 48.6975 28.64C49.0175 28.2667 49.3775 28.08 49.7775 28.08C50.1242 28.08 50.3908 28.24 50.5775 28.56C50.7908 28.88 50.8975 29.32 50.8975 29.88C50.8975 30.9467 50.6442 31.7733 50.1375 32.36C49.0442 33.72 47.8842 34.8667 46.6575 35.8C45.4308 36.7333 44.2442 37.2 43.0975 37.2C42.2175 37.2 41.4042 36.9067 40.6575 36.32C39.9375 35.7067 39.3908 34.88 39.0175 33.84C37.6308 36.08 35.8842 37.2 33.7775 37.2ZM35.2175 33.16C35.8042 33.16 36.3642 32.8133 36.8975 32.12C37.4308 31.4267 37.8175 30.5067 38.0575 29.36L39.5375 22C38.4175 22.0267 37.3775 22.4533 36.4175 23.28C35.4842 24.08 34.7375 25.1467 34.1775 26.48C33.6175 27.8133 33.3375 29.2267 33.3375 30.72C33.3375 31.5467 33.4975 32.16 33.8175 32.56C34.1642 32.96 34.6308 33.16 35.2175 33.16ZM50.4866 37.2C49.4732 37.2 48.7532 36.6667 48.3266 35.6C47.9266 34.5333 47.7266 32.8267 47.7266 30.48C47.7266 27.0133 48.2199 23.72 49.2066 20.6C49.4466 19.8267 49.8332 19.2667 50.3666 18.92C50.9266 18.5467 51.6999 18.36 52.6866 18.36C53.2199 18.36 53.5932 18.4267 53.8066 18.56C54.0199 18.6933 54.1266 18.9467 54.1266 19.32C54.1266 19.7467 53.9266 20.7067 53.5266 22.2C53.2599 23.2667 53.0466 24.2 52.8866 25C52.7266 25.7733 52.5932 26.7467 52.4866 27.92C53.2066 25.84 54.0599 24.08 55.0466 22.64C56.0599 21.2 57.0866 20.1333 58.1266 19.44C59.1932 18.72 60.1932 18.36 61.1266 18.36C62.0599 18.36 62.7132 18.5733 63.0866 19C63.4866 19.4267 63.6866 20.08 63.6866 20.96C63.6866 21.8133 63.4332 23.36 62.9266 25.6C62.7132 26.56 62.5666 27.28 62.4866 27.76C63.8199 24.48 65.2999 22.0933 66.9266 20.6C68.5532 19.1067 70.0732 18.36 71.4866 18.36C73.2199 18.36 74.0866 19.2267 74.0866 20.96C74.0866 22 73.7932 23.88 73.2066 26.6C72.6999 28.92 72.4466 30.4533 72.4466 31.2C72.4466 32.2667 72.8332 32.8 73.6066 32.8C74.1399 32.8 74.7666 32.48 75.4866 31.84C76.2332 31.1733 77.2199 30.1067 78.4466 28.64C78.7666 28.2667 79.1266 28.08 79.5266 28.08C79.8732 28.08 80.1399 28.24 80.3266 28.56C80.5399 28.88 80.6466 29.32 80.6466 29.88C80.6466 30.9467 80.3932 31.7733 79.8866 32.36C78.7399 33.7733 77.4999 34.9333 76.1666 35.84C74.8599 36.7467 73.3666 37.2 71.6866 37.2C70.3266 37.2 69.2999 36.8133 68.6066 36.04C67.9132 35.24 67.5666 34.0933 67.5666 32.6C67.5666 31.8533 67.7532 30.52 68.1266 28.6C68.4732 26.92 68.6466 25.76 68.6466 25.12C68.6466 24.6933 68.4999 24.48 68.2066 24.48C67.8599 24.48 67.3666 24.9333 66.7266 25.84C66.0866 26.72 65.4466 27.8933 64.8066 29.36C64.1666 30.8267 63.6466 32.3733 63.2466 34C62.9532 35.28 62.6066 36.1333 62.2066 36.56C61.8332 36.9867 61.2199 37.2 60.3666 37.2C59.4866 37.2 58.8199 36.7867 58.3666 35.96C57.9399 35.1067 57.7266 34.08 57.7266 32.88C57.7266 31.8667 57.8599 30.4 58.1266 28.48C58.3399 26.7733 58.4466 25.6533 58.4466 25.12C58.4466 24.6933 58.2999 24.48 58.0066 24.48C57.6066 24.48 57.0999 24.96 56.4866 25.92C55.8732 26.88 55.2732 28.1067 54.6866 29.6C54.1266 31.0933 53.6732 32.56 53.3266 34C53.0332 35.2533 52.6866 36.1067 52.2866 36.56C51.9132 36.9867 51.3132 37.2 50.4866 37.2Z" fill="#7E3AA7"/>
<path d="M109.278 24.72C109.625 24.72 109.891 24.8933 110.078 25.24C110.265 25.5867 110.358 26.0267 110.358 26.56C110.358 27.2267 110.265 27.7467 110.078 28.12C109.891 28.4667 109.598 28.7067 109.198 28.84C107.278 29.5067 105.251 29.84 103.118 29.84C102.425 32.2133 101.331 34.0267 99.8381 35.28C98.3715 36.5333 96.6248 37.16 94.5981 37.16C92.4115 37.16 90.7048 36.52 89.4781 35.24C88.2515 33.9333 87.6381 31.9467 87.6381 29.28C87.6381 27.28 87.9981 25.4933 88.7181 23.92C89.4648 22.32 90.4648 21.08 91.7181 20.2C92.9715 19.2933 94.3581 18.84 95.8781 18.84C96.6781 18.84 97.3715 18.9867 97.9581 19.28C97.5848 18.6667 97.1581 18.08 96.6781 17.52C96.2248 16.96 95.6248 16.2667 94.8781 15.44C93.9181 14.3733 93.1715 13.5067 92.6381 12.84C92.1048 12.1733 91.6515 11.44 91.2781 10.64C90.9048 9.81333 90.7181 8.96 90.7181 8.08C90.7181 6.85333 91.0648 5.88 91.7581 5.16C92.4515 4.41333 93.3048 3.85333 94.3181 3.48C95.3315 3.10666 96.6915 2.72 98.3981 2.32C99.2515 2.10666 100.118 1.88 100.998 1.64C101.878 1.37333 102.611 1.09333 103.198 0.799999C103.358 0.719998 103.518 0.679998 103.678 0.679998C104.051 0.679998 104.345 0.919998 104.558 1.4C104.798 1.88 104.918 2.44 104.918 3.08C104.918 3.53333 104.851 3.94667 104.718 4.32C104.585 4.66667 104.398 4.92 104.158 5.08C103.465 5.53333 102.705 5.86667 101.878 6.08C101.078 6.26666 100.105 6.44 98.9581 6.6C97.7048 6.78667 96.7848 7 96.1981 7.24C95.6381 7.45333 95.3581 7.88 95.3581 8.52C95.3581 8.94667 95.5581 9.44 95.9581 10C96.3848 10.5333 97.0381 11.28 97.9181 12.24C99.0915 13.52 100.078 14.68 100.878 15.72C101.678 16.7333 102.371 17.9333 102.958 19.32C103.571 20.68 103.878 22.1333 103.878 23.68C103.878 24.1333 103.851 24.7867 103.798 25.64C105.265 25.56 106.905 25.28 108.718 24.8C108.878 24.7467 109.065 24.72 109.278 24.72ZM94.5981 32.96C95.4248 32.96 96.1848 32.5067 96.8781 31.6C97.5981 30.6667 98.1715 29.4667 98.5981 28C98.0915 27.44 97.7048 26.8 97.4381 26.08C97.1981 25.36 97.0781 24.6133 97.0781 23.84C97.0781 23.6 97.1048 23.24 97.1581 22.76L96.3981 22.72C95.7315 22.72 95.1048 23 94.5181 23.56C93.9581 24.12 93.5048 24.9067 93.1581 25.92C92.8115 26.9067 92.6381 28.0267 92.6381 29.28C92.6381 30.4533 92.7848 31.36 93.0781 32C93.3981 32.64 93.9048 32.96 94.5981 32.96ZM127.304 24.72C127.651 24.72 127.918 24.8933 128.104 25.24C128.291 25.5867 128.384 26.0267 128.384 26.56C128.384 27.84 127.998 28.6 127.224 28.84C125.624 29.4 123.864 29.72 121.944 29.8C121.438 32.04 120.438 33.84 118.944 35.2C117.451 36.5333 115.758 37.2 113.864 37.2C112.264 37.2 110.891 36.8133 109.744 36.04C108.624 35.2667 107.771 34.24 107.184 32.96C106.598 31.68 106.304 30.2933 106.304 28.8C106.304 26.7733 106.691 24.9733 107.464 23.4C108.238 21.8 109.304 20.56 110.664 19.68C112.024 18.7733 113.531 18.32 115.184 18.32C117.211 18.32 118.838 19.0267 120.064 20.44C121.318 21.8267 122.051 23.5467 122.264 25.6C123.518 25.52 125.011 25.2533 126.744 24.8C126.958 24.7467 127.144 24.72 127.304 24.72ZM114.184 32.96C115.038 32.96 115.771 32.6133 116.384 31.92C117.024 31.2267 117.451 30.2267 117.664 28.92C116.838 28.36 116.198 27.6267 115.744 26.72C115.318 25.8133 115.104 24.8533 115.104 23.84C115.104 23.4133 115.144 22.9867 115.224 22.56H115.024C113.958 22.56 113.064 23.08 112.344 24.12C111.651 25.1333 111.304 26.5733 111.304 28.44C111.304 29.9067 111.584 31.0267 112.144 31.8C112.731 32.5733 113.411 32.96 114.184 32.96ZM127.791 37.2C126.778 37.2 126.058 36.6667 125.631 35.6C125.231 34.5333 125.031 32.8267 125.031 30.48C125.031 27.0133 125.525 23.72 126.511 20.6C126.751 19.8267 127.138 19.2667 127.671 18.92C128.231 18.5467 129.005 18.36 129.991 18.36C130.525 18.36 130.898 18.4267 131.111 18.56C131.325 18.6933 131.431 18.9467 131.431 19.32C131.431 19.7467 131.231 20.7067 130.831 22.2C130.565 23.2667 130.351 24.2 130.191 25C130.031 25.7733 129.898 26.7467 129.791 27.92C130.511 25.84 131.365 24.08 132.351 22.64C133.365 21.2 134.391 20.1333 135.431 19.44C136.498 18.72 137.498 18.36 138.431 18.36C139.365 18.36 140.018 18.5733 140.391 19C140.791 19.4267 140.991 20.08 140.991 20.96C140.991 21.8133 140.738 23.36 140.231 25.6C140.018 26.56 139.871 27.28 139.791 27.76C141.125 24.48 142.605 22.0933 144.231 20.6C145.858 19.1067 147.378 18.36 148.791 18.36C150.525 18.36 151.391 19.2267 151.391 20.96C151.391 22 151.098 23.88 150.511 26.6C150.005 28.92 149.751 30.4533 149.751 31.2C149.751 32.2667 150.138 32.8 150.911 32.8C151.445 32.8 152.071 32.48 152.791 31.84C153.538 31.1733 154.525 30.1067 155.751 28.64C156.071 28.2667 156.431 28.08 156.831 28.08C157.178 28.08 157.445 28.24 157.631 28.56C157.845 28.88 157.951 29.32 157.951 29.88C157.951 30.9467 157.698 31.7733 157.191 32.36C156.045 33.7733 154.805 34.9333 153.471 35.84C152.165 36.7467 150.671 37.2 148.991 37.2C147.631 37.2 146.605 36.8133 145.911 36.04C145.218 35.24 144.871 34.0933 144.871 32.6C144.871 31.8533 145.058 30.52 145.431 28.6C145.778 26.92 145.951 25.76 145.951 25.12C145.951 24.6933 145.805 24.48 145.511 24.48C145.165 24.48 144.671 24.9333 144.031 25.84C143.391 26.72 142.751 27.8933 142.111 29.36C141.471 30.8267 140.951 32.3733 140.551 34C140.258 35.28 139.911 36.1333 139.511 36.56C139.138 36.9867 138.525 37.2 137.671 37.2C136.791 37.2 136.125 36.7867 135.671 35.96C135.245 35.1067 135.031 34.08 135.031 32.88C135.031 31.8667 135.165 30.4 135.431 28.48C135.645 26.7733 135.751 25.6533 135.751 25.12C135.751 24.6933 135.605 24.48 135.311 24.48C134.911 24.48 134.405 24.96 133.791 25.92C133.178 26.88 132.578 28.1067 131.991 29.6C131.431 31.0933 130.978 32.56 130.631 34C130.338 35.2533 129.991 36.1067 129.591 36.56C129.218 36.9867 128.618 37.2 127.791 37.2Z" fill="#2D4AE4"/>
</svg>
